# xmcd
#
# Track frame offsets: 
#        150
#        20759
#        35616
#        41196
#        53659
#        65661
#        88029
#        110678
#        122947
#        150910
#
# Disc length: 2331 seconds
#
# Revision: 1
# Processed by: cddbd v1.5.2PL0 Copyright (c) Steve Scherf et al.
# Submitted via: ExactAudioCopy v1.1
#
DISCID=8809190a
DTITLE=Rex Carroll Band - That Was Then, This Is Now
DYEAR=2010
DGENRE=Blues/Rock
TTITLE0=Find A Way
TTITLE1=Circle Of Love
TTITLE2=Foolsgold
TTITLE3=Working Man's Blues
TTITLE4=Walk A Mile
TTITLE5=Rock My World
TTITLE6=Witch Dr. Bones
TTITLE7=Delta Memories
TTITLE8=My Train
TTITLE9=Throw Them Bonz
EXTD=
EXTT0=
EXTT1=
EXTT2=
EXTT3=
EXTT4=
EXTT5=
EXTT6=
EXTT7=
EXTT8=
EXTT9=
PLAYORDER=
